<?xml version="1.0" encoding="utf-8"?>
<!-- Generator: Adobe Illustrator 16.0.0, SVG Export Plug-In . SVG Version: 6.00 Build 0)  -->
<!DOCTYPE svg PUBLIC "-//W3C//DTD SVG 1.1//EN" "http://www.w3.org/Graphics/SVG/1.1/DTD/svg11.dtd">
<svg version="1.1" id="Слой_1" xmlns="http://www.w3.org/2000/svg" xmlns:xlink="http://www.w3.org/1999/xlink" x="0px" y="0px"
	 width="150px" height="150px" viewBox="0 0 150 150" enable-background="new 0 0 150 150" xml:space="preserve">
<rect fill="#C82D30" width="150" height="150"/>
<g>
	<g>
		<g>
			<path fill="#FFFFFF" d="M12.504,100.542l2.776-16.618h10.141l-0.645,3.822H19.48l-2.149,12.796H12.504z"/>
			<path fill="#FFFFFF" d="M31.874,100.969c-1.964,0-3.668-0.645-5.113-1.93c-1.445-1.287-2.167-3.132-2.167-5.534
				c0-2.784,0.807-5.147,2.423-7.091c1.615-1.944,3.726-2.917,6.331-2.917c2.086,0,3.798,0.681,5.138,2.04s2.009,3.139,2.009,5.339
				c0,2.808-0.795,5.192-2.386,7.151C36.517,99.988,34.438,100.969,31.874,100.969z M31.911,97.097c0.86,0,1.513-0.363,1.96-1.09
				c0.446-0.726,0.799-1.792,1.059-3.196c0.259-1.403,0.389-2.354,0.389-2.848c0-0.853-0.197-1.498-0.59-1.937
				c-0.394-0.438-0.916-0.657-1.564-0.657c-1.242,0-2.115,0.864-2.617,2.594c-0.504,1.729-0.755,3.258-0.755,4.589
				C29.792,96.248,30.499,97.097,31.911,97.097z"/>
			<path fill="#FFFFFF" d="M46.99,94.442l-1.025,6.1h-4.826l2.775-16.618h5.491c1.29,0,2.229,0.055,2.818,0.164
				c0.588,0.109,1.196,0.373,1.826,0.791c0.629,0.419,1.127,0.979,1.497,1.681s0.554,1.454,0.554,2.259
				c0,1.559-0.506,2.886-1.52,3.98c-1.014,1.096-2.466,1.644-4.356,1.644H46.99z M47.586,90.887h1.146
				c1.748,0,2.622-0.59,2.622-1.77c0-1.061-0.731-1.59-2.192-1.59h-1.011L47.586,90.887z"/>
			<path fill="#FFFFFF" d="M56.077,100.542l2.776-16.618h4.715l-0.989,5.893h2.382c1.637,0,2.854,0.168,3.647,0.506
				c0.794,0.336,1.386,0.855,1.775,1.559c0.389,0.701,0.584,1.547,0.584,2.537c0,1.673-0.514,3.111-1.541,4.316
				c-1.027,1.205-2.896,1.808-5.606,1.808H56.077z M61.386,96.914h2.422c1.436,0,2.154-0.694,2.154-2.082
				c0-1.029-0.625-1.547-1.874-1.547h-2.093L61.386,96.914z M71.706,100.542l2.775-16.618h4.703l-2.775,16.618H71.706z"/>
			<path fill="#FFFFFF" d="M89.548,93.857h-4.312l-1.116,6.685h-4.827l2.777-16.618h4.826l-1.021,6.111h4.313l1.021-6.111h4.827
				l-2.775,16.618h-4.828L89.548,93.857z"/>
			<path fill="#FFFFFF" d="M96.144,100.542l2.776-16.618h4.715l-0.99,5.893h2.383c1.638,0,2.854,0.168,3.646,0.506
				c0.795,0.336,1.387,0.855,1.775,1.559c0.391,0.701,0.585,1.547,0.585,2.537c0,1.673-0.516,3.111-1.541,4.316
				c-1.026,1.205-2.896,1.808-5.606,1.808H96.144z M101.453,96.914h2.422c1.436,0,2.154-0.694,2.154-2.082
				c0-1.029-0.625-1.547-1.875-1.547h-2.092L101.453,96.914z M111.772,100.542l2.776-16.618h4.702l-2.776,16.618H111.772z"/>
			<path fill="#FFFFFF" d="M127.976,100.542l1.01-6.027c-1.29,0.86-2.62,1.291-3.99,1.291c-1.281,0-2.331-0.295-3.145-0.888
				c-0.815-0.593-1.223-1.543-1.223-2.85c0-0.471,0.097-1.294,0.292-2.471l0.948-5.674h4.814l-0.953,5.672
				c-0.121,0.754-0.183,1.262-0.183,1.521c0,0.65,0.504,0.977,1.512,0.977c0.746,0,1.551-0.156,2.412-0.465l1.293-7.705h4.825
				l-2.787,16.618H127.976z"/>
		</g>
		<g>
			<path fill="#FFFFFF" d="M24.001,106.102c-0.313,0-0.535,0.084-0.665,0.252s-0.195,0.442-0.195,0.822
				c0,0.376,0.067,0.648,0.202,0.816c0.134,0.168,0.365,0.251,0.691,0.251c0.34,0,0.575-0.103,0.705-0.309
				c0.103-0.161,0.229-0.241,0.376-0.241h0.491c0.058,0,0.106,0.02,0.144,0.057c0.039,0.037,0.058,0.087,0.058,0.145
				c0,0.376-0.163,0.66-0.487,0.853c-0.325,0.192-0.781,0.289-1.367,0.289c-0.64,0-1.13-0.158-1.47-0.473
				c-0.34-0.316-0.511-0.778-0.511-1.388c0-0.613,0.169-1.077,0.507-1.393c0.338-0.316,0.818-0.474,1.44-0.474
				c0.587,0,1.042,0.096,1.367,0.288c0.324,0.193,0.486,0.478,0.486,0.854c0,0.059-0.019,0.106-0.057,0.145
				c-0.039,0.037-0.086,0.058-0.145,0.058h-0.49c-0.148,0-0.273-0.082-0.376-0.243C24.576,106.205,24.341,106.102,24.001,106.102z"
				/>
			<path fill="#FFFFFF" d="M32.4,105.578v3.189c0,0.059-0.019,0.106-0.057,0.145c-0.039,0.037-0.086,0.058-0.145,0.058h-0.732
				c-0.058,0-0.106-0.021-0.144-0.058c-0.038-0.038-0.057-0.086-0.057-0.145v-2.6h-1.437v2.6c0,0.059-0.019,0.106-0.057,0.145
				c-0.038,0.037-0.086,0.058-0.145,0.058h-0.732c-0.058,0-0.106-0.021-0.144-0.058c-0.038-0.038-0.057-0.086-0.057-0.145v-3.189
				c0-0.059,0.019-0.107,0.057-0.145c0.038-0.038,0.086-0.057,0.144-0.057h3.304c0.058,0,0.106,0.019,0.145,0.057
				C32.381,105.471,32.4,105.52,32.4,105.578z"/>
			<path fill="#FFFFFF" d="M35.865,105.779c0.34-0.313,0.831-0.47,1.471-0.47c0.64,0,1.13,0.156,1.471,0.47
				c0.34,0.313,0.51,0.777,0.51,1.39c0,0.613-0.17,1.078-0.51,1.395c-0.34,0.314-0.831,0.473-1.471,0.473
				c-0.64,0-1.13-0.158-1.471-0.473c-0.34-0.316-0.51-0.781-0.51-1.395C35.355,106.557,35.525,106.093,35.865,105.779z
				 M36.694,108.021c0.137,0.18,0.351,0.269,0.642,0.269s0.505-0.089,0.641-0.269c0.137-0.178,0.205-0.463,0.205-0.853
				s-0.068-0.673-0.205-0.849c-0.136-0.177-0.35-0.266-0.641-0.266s-0.505,0.089-0.642,0.266c-0.137,0.176-0.205,0.459-0.205,0.849
				S36.558,107.844,36.694,108.021z"/>
			<path fill="#FFFFFF" d="M44.453,105.31c0.492,0,0.892,0.16,1.199,0.483c0.306,0.322,0.46,0.781,0.46,1.376
				c0,0.604-0.159,1.066-0.477,1.388c-0.318,0.319-0.745,0.479-1.283,0.479c-0.277,0-0.593-0.056-0.947-0.169v1.008
				c0,0.059-0.019,0.106-0.057,0.145c-0.038,0.037-0.086,0.058-0.145,0.058h-0.732c-0.058,0-0.106-0.021-0.144-0.058
				c-0.038-0.038-0.057-0.086-0.057-0.145v-4.297c0-0.059,0.019-0.107,0.057-0.145c0.038-0.038,0.086-0.057,0.144-0.057h0.631
				c0.058,0,0.106,0.019,0.144,0.057c0.038,0.037,0.058,0.086,0.058,0.145v0.101C43.649,105.433,44.032,105.31,44.453,105.31z
				 M44.185,106.102c-0.206,0-0.465,0.099-0.779,0.295v1.713c0.282,0.09,0.519,0.134,0.712,0.134c0.3,0,0.512-0.084,0.638-0.255
				c0.125-0.17,0.188-0.442,0.188-0.819c0-0.371-0.06-0.642-0.178-0.813C44.646,106.187,44.453,106.102,44.185,106.102z"/>
			<path fill="#FFFFFF" d="M48.932,105.377h3.229c0.058,0,0.107,0.019,0.145,0.057c0.038,0.037,0.057,0.086,0.057,0.145v0.389
				c0,0.059-0.019,0.107-0.057,0.145c-0.038,0.039-0.086,0.057-0.145,0.057h-1.047v2.6c0,0.059-0.019,0.106-0.057,0.145
				c-0.039,0.037-0.086,0.058-0.145,0.058h-0.732c-0.058,0-0.106-0.021-0.144-0.058c-0.039-0.038-0.057-0.086-0.057-0.145v-2.6
				h-1.048c-0.058,0-0.106-0.018-0.144-0.057c-0.038-0.037-0.057-0.086-0.057-0.145v-0.389c0-0.059,0.019-0.107,0.057-0.145
				C48.826,105.396,48.874,105.377,48.932,105.377z"/>
			<path fill="#FFFFFF" d="M56.271,107.733l1.155-2.122c0.036-0.066,0.089-0.124,0.161-0.168c0.072-0.045,0.141-0.066,0.208-0.066
				h0.92c0.058,0,0.106,0.019,0.145,0.057c0.038,0.037,0.057,0.086,0.057,0.145v3.189c0,0.059-0.019,0.106-0.057,0.145
				c-0.038,0.037-0.086,0.058-0.145,0.058H58.03c-0.058,0-0.106-0.021-0.144-0.058c-0.039-0.038-0.057-0.086-0.057-0.145v-2.148
				l-1.155,2.115c-0.036,0.063-0.09,0.116-0.162,0.164s-0.141,0.071-0.208,0.071h-0.92c-0.058,0-0.106-0.021-0.145-0.058
				c-0.038-0.038-0.057-0.086-0.057-0.145v-3.189c0-0.059,0.02-0.107,0.057-0.145c0.038-0.038,0.086-0.057,0.145-0.057h0.685
				c0.058,0,0.106,0.019,0.144,0.057c0.039,0.037,0.057,0.086,0.057,0.145V107.733z"/>
			<path fill="#FFFFFF" d="M64.375,108.97h-2.102c-0.058,0-0.107-0.021-0.145-0.058c-0.037-0.038-0.057-0.086-0.057-0.145v-3.189
				c0-0.059,0.02-0.107,0.057-0.145c0.038-0.038,0.087-0.057,0.145-0.057h1.96c0.417,0,0.754,0.08,1.014,0.241
				c0.259,0.161,0.39,0.406,0.39,0.732c0,0.321-0.135,0.566-0.403,0.732c0.38,0.191,0.571,0.485,0.571,0.879
				c0,0.362-0.124,0.62-0.37,0.775C65.19,108.892,64.836,108.97,64.375,108.97z M63.208,106.779h0.96
				c0.098,0,0.179-0.03,0.242-0.093c0.063-0.063,0.094-0.144,0.094-0.242s-0.031-0.18-0.094-0.242
				c-0.063-0.062-0.144-0.094-0.242-0.094h-0.96V106.779z M64.295,107.498h-1.087v0.739h1.087c0.121,0,0.213-0.034,0.279-0.102
				c0.064-0.067,0.097-0.156,0.097-0.269c0-0.111-0.033-0.201-0.097-0.269C64.508,107.531,64.416,107.498,64.295,107.498z"/>
			<path fill="#FFFFFF" d="M69.861,105.578v1.175h1.438v-1.175c0-0.059,0.019-0.107,0.057-0.145
				c0.038-0.038,0.086-0.057,0.144-0.057h0.732c0.059,0,0.106,0.019,0.145,0.057c0.037,0.037,0.057,0.086,0.057,0.145v3.189
				c0,0.059-0.02,0.106-0.057,0.145c-0.039,0.037-0.086,0.058-0.145,0.058H71.5c-0.058,0-0.106-0.021-0.144-0.058
				c-0.038-0.038-0.057-0.086-0.057-0.145v-1.222h-1.438v1.222c0,0.059-0.019,0.106-0.057,0.145
				c-0.038,0.037-0.086,0.058-0.144,0.058h-0.732c-0.058,0-0.106-0.021-0.145-0.058c-0.038-0.038-0.057-0.086-0.057-0.145v-3.189
				c0-0.059,0.019-0.107,0.057-0.145c0.039-0.038,0.087-0.057,0.145-0.057h0.732c0.058,0,0.106,0.019,0.144,0.057
				C69.842,105.471,69.861,105.52,69.861,105.578z"/>
			<path fill="#FFFFFF" d="M76.724,106.564h0.779c0.465,0,0.825,0.092,1.081,0.276c0.254,0.184,0.383,0.492,0.383,0.927
				c0,0.434-0.129,0.742-0.383,0.926c-0.256,0.185-0.616,0.276-1.081,0.276H75.79c-0.059,0-0.105-0.021-0.145-0.058
				c-0.038-0.038-0.057-0.086-0.057-0.145v-3.189c0-0.059,0.02-0.107,0.057-0.145c0.039-0.038,0.086-0.057,0.145-0.057h0.731
				c0.059,0,0.106,0.019,0.145,0.057c0.038,0.037,0.058,0.086,0.058,0.145V106.564z M77.401,107.297h-0.698v0.94h0.698
				c0.286,0,0.431-0.157,0.431-0.47C77.832,107.454,77.688,107.297,77.401,107.297z M80.363,108.97h-0.731
				c-0.059,0-0.106-0.021-0.145-0.058c-0.039-0.038-0.058-0.086-0.058-0.145v-3.189c0-0.059,0.019-0.107,0.058-0.145
				c0.038-0.038,0.086-0.057,0.145-0.057h0.731c0.057,0,0.105,0.019,0.144,0.057c0.039,0.037,0.058,0.086,0.058,0.145v3.189
				c0,0.059-0.019,0.106-0.058,0.145C80.469,108.949,80.42,108.97,80.363,108.97z"/>
			<path fill="#FFFFFF" d="M84.808,107.733l1.155-2.122c0.035-0.066,0.088-0.124,0.161-0.168c0.071-0.045,0.141-0.066,0.208-0.066
				h0.92c0.059,0,0.106,0.019,0.145,0.057c0.038,0.037,0.058,0.086,0.058,0.145v3.189c0,0.059-0.02,0.106-0.058,0.145
				c-0.038,0.037-0.086,0.058-0.145,0.058h-0.684c-0.059,0-0.107-0.021-0.145-0.058c-0.039-0.038-0.059-0.086-0.059-0.145v-2.148
				l-1.154,2.115c-0.036,0.063-0.09,0.116-0.161,0.164c-0.072,0.048-0.142,0.071-0.208,0.071h-0.92
				c-0.059,0-0.105-0.021-0.145-0.058c-0.038-0.038-0.058-0.086-0.058-0.145v-3.189c0-0.059,0.02-0.107,0.058-0.145
				c0.039-0.038,0.086-0.057,0.145-0.057h0.684c0.059,0,0.107,0.019,0.146,0.057c0.038,0.037,0.057,0.086,0.057,0.145V107.733z
				 M84.668,103.967h0.247c0.108,0,0.184,0.056,0.228,0.167c0.072,0.18,0.221,0.269,0.444,0.269s0.372-0.089,0.442-0.269
				c0.047-0.111,0.121-0.167,0.229-0.167h0.247c0.121,0,0.182,0.056,0.182,0.167c0,0.256-0.102,0.466-0.305,0.628
				c-0.205,0.164-0.469,0.245-0.796,0.245s-0.593-0.081-0.796-0.245c-0.203-0.162-0.307-0.372-0.307-0.628
				C84.484,104.022,84.546,103.967,84.668,103.967z"/>
			<path fill="#FFFFFF" d="M98.977,105.578v2.599h0.32c0.059,0,0.107,0.019,0.145,0.057c0.038,0.039,0.058,0.086,0.058,0.145v0.39
				c0,0.059-0.02,0.106-0.058,0.145c-0.037,0.037-0.086,0.058-0.145,0.058h-3.785c-0.059,0-0.107-0.021-0.145-0.058
				c-0.039-0.038-0.057-0.086-0.057-0.145v-3.189c0-0.059,0.018-0.107,0.057-0.145c0.037-0.038,0.086-0.057,0.145-0.057h0.731
				c0.058,0,0.106,0.019,0.144,0.057c0.039,0.037,0.057,0.086,0.057,0.145v2.599h1.397v-2.599c0-0.059,0.02-0.107,0.058-0.145
				c0.037-0.038,0.086-0.057,0.145-0.057h0.731c0.059,0,0.105,0.019,0.146,0.057C98.957,105.471,98.977,105.52,98.977,105.578z"/>
			<path fill="#FFFFFF" d="M105.743,107.518h-2.47c0.021,0.27,0.1,0.465,0.231,0.588c0.131,0.123,0.334,0.185,0.606,0.185
				c0.309,0,0.524-0.073,0.646-0.222c0.093-0.115,0.218-0.174,0.375-0.174h0.49c0.059,0,0.106,0.019,0.145,0.058
				c0.038,0.037,0.057,0.085,0.057,0.144c0,0.627-0.598,0.94-1.793,0.94c-0.604,0-1.074-0.16-1.41-0.479
				c-0.335-0.321-0.503-0.78-0.503-1.381c0-0.6,0.168-1.061,0.506-1.383c0.339-0.323,0.808-0.483,1.407-0.483
				c0.604,0,1.075,0.156,1.41,0.47c0.336,0.313,0.504,0.764,0.504,1.35v0.188c0,0.059-0.02,0.106-0.057,0.145
				C105.85,107.5,105.802,107.518,105.743,107.518z M104.031,106.055c-0.482,0-0.737,0.257-0.766,0.772h1.525
				C104.769,106.312,104.516,106.055,104.031,106.055z"/>
			<path fill="#FFFFFF" d="M110.035,105.578v1.175h1.437v-1.175c0-0.059,0.019-0.107,0.058-0.145
				c0.037-0.038,0.086-0.057,0.144-0.057h0.731c0.059,0,0.107,0.019,0.145,0.057c0.037,0.037,0.058,0.086,0.058,0.145v3.189
				c0,0.059-0.021,0.106-0.058,0.145c-0.037,0.037-0.086,0.058-0.145,0.058h-0.731c-0.058,0-0.106-0.021-0.144-0.058
				c-0.039-0.038-0.058-0.086-0.058-0.145v-1.222h-1.437v1.222c0,0.059-0.02,0.106-0.057,0.145
				c-0.039,0.037-0.087,0.058-0.146,0.058h-0.731c-0.059,0-0.105-0.021-0.146-0.058c-0.038-0.038-0.057-0.086-0.057-0.145v-3.189
				c0-0.059,0.019-0.107,0.057-0.145c0.04-0.038,0.087-0.057,0.146-0.057h0.731c0.059,0,0.106,0.019,0.146,0.057
				C110.016,105.471,110.035,105.52,110.035,105.578z"/>
			<path fill="#FFFFFF" d="M115.628,105.377h3.229c0.059,0,0.106,0.019,0.145,0.057c0.037,0.037,0.057,0.086,0.057,0.145v0.389
				c0,0.059-0.02,0.107-0.057,0.145c-0.038,0.039-0.086,0.057-0.145,0.057h-1.048v2.6c0,0.059-0.019,0.106-0.057,0.145
				c-0.038,0.037-0.087,0.058-0.146,0.058h-0.731c-0.057,0-0.105-0.021-0.144-0.058c-0.039-0.038-0.057-0.086-0.057-0.145v-2.6
				h-1.048c-0.059,0-0.106-0.018-0.144-0.057c-0.038-0.037-0.059-0.086-0.059-0.145v-0.389c0-0.059,0.021-0.107,0.059-0.145
				C115.521,105.396,115.569,105.377,115.628,105.377z"/>
			<path fill="#FFFFFF" d="M124.062,105.31c0.492,0,0.892,0.16,1.197,0.483c0.307,0.322,0.461,0.781,0.461,1.376
				c0,0.604-0.158,1.066-0.478,1.388c-0.317,0.319-0.746,0.479-1.282,0.479c-0.276,0-0.593-0.056-0.946-0.169v1.008
				c0,0.059-0.02,0.106-0.057,0.145c-0.039,0.037-0.087,0.058-0.146,0.058h-0.731c-0.059,0-0.105-0.021-0.145-0.058
				c-0.037-0.038-0.057-0.086-0.057-0.145v-4.297c0-0.059,0.02-0.107,0.057-0.145c0.039-0.038,0.086-0.057,0.145-0.057h0.632
				c0.057,0,0.105,0.019,0.144,0.057c0.038,0.037,0.057,0.086,0.057,0.145v0.101C123.257,105.433,123.64,105.31,124.062,105.31z
				 M123.792,106.102c-0.205,0-0.465,0.099-0.778,0.295v1.713c0.282,0.09,0.52,0.134,0.711,0.134c0.3,0,0.514-0.084,0.639-0.255
				c0.125-0.17,0.188-0.442,0.188-0.819c0-0.371-0.061-0.642-0.179-0.813C124.255,106.187,124.062,106.102,123.792,106.102z"/>
		</g>
	</g>
	<g>
		<path fill="#FFFFFF" d="M73.654,20.755c0,0,3.027,5.521-14.782,15.672c-17.81,10.151-4.63,28.673,3.74,29.564
			c0,0-3.74-8.371,4.631-14.426c8.37-6.056,19.768-13.357,12.11-21.193c0,0-1.959,7.48-11.576,13.001
			c-9.617,5.521-10.775,8.905-10.597,11.932c0,0-5.877-5.699,7.501-15.075C74.455,33.381,81.313,28.057,73.654,20.755z"/>
		<path fill="#FFFFFF" d="M73.679,77.745c0,0-3.028-5.521,14.782-15.672c17.811-10.152,4.631-28.673-3.739-29.564
			c0,0,3.739,8.37-4.631,14.426C71.72,52.99,60.322,60.292,67.98,68.128c0,0,1.958-7.48,11.576-13.001
			c9.617-5.521,10.775-8.905,10.597-11.932c0,0,5.878,5.699-7.501,15.076C72.879,65.119,66.021,70.443,73.679,77.745z"/>
	</g>
</g>
</svg>
